<?xml version="1.0" encoding="utf-8"?>
<!-- Generator: Adobe Illustrator 19.2.1, SVG Export Plug-In . SVG Version: 6.00 Build 0)  -->
<svg version="1.1" id="Layer_1" xmlns="http://www.w3.org/2000/svg" xmlns:xlink="http://www.w3.org/1999/xlink" x="0px" y="0px"
	 viewBox="0 0 217.3 217.3" enable-background="new 0 0 217.3 217.3" xml:space="preserve">
<g>
	<defs>
		<path id="SVGID_1_" d="M190.2,213.4H27.1c-12.8,0-23.2-10.4-23.2-23.2V27.1c0-12.8,10.4-23.2,23.2-23.2h163.1
			c12.8,0,23.2,10.4,23.2,23.2v163.1C213.4,203,203,213.4,190.2,213.4z"/>
	</defs>
	<clipPath id="SVGID_2_">
		<use xlink:href="#SVGID_1_"  overflow="visible"/>
	</clipPath>
	<g clip-path="url(#SVGID_2_)">
		<g>
			<g>
				<g id="XMLID_16_">
					<g>
						<path fill="#1FB39A" d="M213.4,173.3v16.9c0,12.8-10.4,23.2-23.2,23.2H28.8l81.5-100.5L213.4,173.3z"/>
						<polygon fill="#676EAE" points="213.4,38.6 213.4,173.3 110.3,112.8 						"/>
						<path fill="#91C640" d="M213.4,27.1v11.5l-103.1,74.2L87.4,3.9h102.9C203,3.9,213.4,14.3,213.4,27.1z"/>
						<path fill="#F7A91E" d="M87.4,3.9l22.9,108.9L3.9,87.4V27.1c0-12.8,10.4-23.2,23.2-23.2H87.4z"/>
						<path fill="#EB1984" d="M110.3,112.8L28.8,213.4h-1.7c-12.8,0-23.2-10.4-23.2-23.2V87.4L110.3,112.8z"/>
					</g>
					<g>
					</g>
				</g>
			</g>
			<g>
				<polygon fill="#F7B119" points="166.8,73.6 170.1,82.3 192.2,78.9 				"/>
				<polygon fill="#F58420" points="192.2,78.9 170.1,82.3 174.5,93.8 				"/>
			</g>
			<path fill="#FFFFFF" d="M175.5,95c0,17.5-12.6,27.5-12.6,27.5s-52.1,49.4-52.4,49.7c-0.3,0.3-1.2,1.4-2.4,1.4
				c-1.2,0-2.1-1.1-2.4-1.4c-0.3-0.3-52.4-49.7-52.4-49.7s-12.6-10-12.6-27.5c0-17.5,14.2-36.3,37.2-36.3
				c20.5,0,30.2,16.3,30.2,16.3s9.7-16.3,30.2-16.3C161.3,58.7,175.5,77.5,175.5,95z"/>
			<circle fill="#DF222E" cx="152.8" cy="86.5" r="10"/>
			<circle fill="#FFFFFF" cx="156.2" cy="85.3" r="2.7"/>
		</g>
	</g>
</g>
<g>
</g>
<g>
</g>
<g>
</g>
<g>
</g>
<g>
</g>
<g>
</g>
<g>
</g>
<g>
</g>
<g>
</g>
<g>
</g>
<g>
</g>
<g>
</g>
<g>
</g>
<g>
</g>
<g>
</g>
</svg>
