<!-- Generator: Adobe Illustrator 19.2.1, SVG Export Plug-In  -->
<svg version="1.1"
	 xmlns="http://www.w3.org/2000/svg" xmlns:xlink="http://www.w3.org/1999/xlink" xmlns:a="http://ns.adobe.com/AdobeSVGViewerExtensions/3.0/"
	 x="0px" y="0px" width="271.2px" height="271.2px" viewBox="0 0 271.2 271.2" enable-background="new 0 0 271.2 271.2"
	 xml:space="preserve">
<defs>
</defs>
<g>
	<g>
		<g id="XMLID_4_">
			<g>
				<path fill="#1FB39A" d="M265.5,216.7v25.9c0,12.7-10.3,22.9-22.9,22.9H34.7l101.2-124.9L265.5,216.7z"/>
				<polygon fill="#676EAE" points="265.5,47.3 265.5,216.7 135.9,140.7 				"/>
				<path fill="#91C640" d="M265.5,28.6v18.7l-129.6,93.3l-28.4-135h135.1C255.3,5.7,265.5,15.9,265.5,28.6z"/>
				<path fill="#F7A91E" d="M107.5,5.7l28.4,135L5.7,109.5V28.6c0-12.7,10.3-22.9,22.9-22.9H107.5z"/>
				<path fill="#EB1984" d="M135.9,140.7L34.7,265.5h-6.1c-12.7,0-22.9-10.3-22.9-22.9V109.5L135.9,140.7z"/>
			</g>
			<g>
			</g>
		</g>
	</g>
</g>
<g>
	<g>
		<polygon fill="#F7B119" points="207.1,87.8 211.2,98.7 238.6,94.4 		"/>
		<polygon fill="#F58420" points="238.6,94.4 211.2,98.7 216.6,112.9 		"/>
	</g>
	<path fill="#FFFFFF" d="M217.9,114.4c0,21.7-15.7,34.1-15.7,34.1s-64.7,61.3-65.1,61.6c-0.3,0.4-1.5,1.7-2.9,1.7
		c-1.5,0-2.6-1.4-2.9-1.7c-0.4-0.4-65.1-61.6-65.1-61.6s-15.7-12.4-15.7-34.1c0-21.7,17.6-45,46.2-45c25.4,0,37.5,20.2,37.5,20.2
		s12-20.2,37.5-20.2C200.3,69.4,217.9,92.6,217.9,114.4z"/>
	<circle fill="#DF222E" cx="189.7" cy="103.9" r="12.4"/>
	<circle fill="#FFFFFF" cx="193.9" cy="102.3" r="3.4"/>
</g>
<g>
	<g id="XMLID_2_">
		<g>
		</g>
		<g>
			<path fill="none" stroke="#FFFFFF" stroke-width="11.3386" stroke-miterlimit="10" d="M242.6,265.5h-214
				c-12.7,0-22.9-10.3-22.9-22.9v-214c0-12.7,10.3-22.9,22.9-22.9h214c12.7,0,22.9,10.3,22.9,22.9v214
				C265.5,255.3,255.3,265.5,242.6,265.5z"/>
		</g>
	</g>
</g>
</svg>
