<!-- Generator: Adobe Illustrator 19.2.1, SVG Export Plug-In  -->
<svg version="1.1"
	 xmlns="http://www.w3.org/2000/svg" xmlns:xlink="http://www.w3.org/1999/xlink" xmlns:a="http://ns.adobe.com/AdobeSVGViewerExtensions/3.0/"
	 x="0px" y="0px" width="260.3px" height="260.3px" viewBox="0 0 260.3 260.3" enable-background="new 0 0 260.3 260.3"
	 xml:space="preserve">
<defs>
</defs>
<g>
	<g>
		<g id="XMLID_1_">
			<g>
				<path fill="#676EAE" d="M260.1,66v128.3c0,5.2-0.6,10.2-1.7,15l-126.2-74l124.7-89.8h0C258.9,52,260.1,58.9,260.1,66z"/>
				<path fill="#91C640" d="M256.9,45.6L256.9,45.6l-124.7,89.8L103.7,0.2h90.6C223.5,0.2,248.3,19.3,256.9,45.6z"/>
				<path fill="#EB1984" d="M132.2,135.3L36.7,253.2l0,0c-21.6-10.8-36.4-33.1-36.4-58.9v-90.6L132.2,135.3z"/>
				<path fill="#F7A91E" d="M103.7,0.2l28.5,135.1L0.2,103.8V66C0.2,29.7,29.7,0.2,66,0.2H103.7z"/>
				<path fill="#1FB39A" d="M132.2,135.3l126.2,74c-6.8,29.1-32.9,50.7-64,50.7H66c-10.5,0-20.5-2.5-29.3-6.9l0,0L132.2,135.3z"/>
			</g>
			<g>
			</g>
		</g>
	</g>
</g>
<g>
	<g>
		<polygon fill="#F7B119" points="205.5,86.4 209.6,97.2 237,93 		"/>
		<polygon fill="#F58420" points="237,93 209.6,97.2 215,111.5 		"/>
	</g>
	<path fill="#FFFFFF" d="M216.3,112.9c0,21.7-15.7,34.1-15.7,34.1s-64.7,61.3-65.1,61.6c-0.3,0.4-1.5,1.7-2.9,1.7
		c-1.5,0-2.6-1.4-2.9-1.7c-0.4-0.4-65.1-61.6-65.1-61.6S49,134.6,49,112.9c0-21.7,17.6-45,46.2-45c25.4,0,37.5,20.2,37.5,20.2
		s12-20.2,37.5-20.2C198.7,67.9,216.3,91.2,216.3,112.9z"/>
	<circle fill="#DF222E" cx="188.1" cy="102.4" r="12.4"/>
	<circle fill="#FFFFFF" cx="192.3" cy="100.9" r="3.4"/>
</g>
</svg>
