<!-- Generator: Adobe Illustrator 19.2.1, SVG Export Plug-In  -->
<svg version="1.1"
	 xmlns="http://www.w3.org/2000/svg" xmlns:xlink="http://www.w3.org/1999/xlink" xmlns:a="http://ns.adobe.com/AdobeSVGViewerExtensions/3.0/"
	 x="0px" y="0px" width="188px" height="142.5px" viewBox="0 0 188 142.5" enable-background="new 0 0 188 142.5"
	 xml:space="preserve">
<defs>
</defs>
<style>
	.pisku-eye {
		transform-origin: 50% 25%;
		animation-name: ckw;
	    animation-iteration-count: infinite;
	    animation-duration: 3s;
	}

	@keyframes ckw {
	    0% {
	       transform: scaleY(1)
	    }

		85% {
		 transform: scaleY(1)	
		}


		90% {
		 transform: scaleY(0)	
		}

	    100% {
	       transform: scaleY(1)
	        
	    }
	}
</style>
<g>
	<g>
		<polygon fill="#F7B119" points="156.5,18.5 160.6,29.3 188,25.1 		"/>
		<polygon fill="#F58420" points="188,25.1 160.6,29.3 166,43.5 		"/>
	</g>
	<path fill="#FFFFFF" d="M167.3,45c0,21.7-15.7,34.1-15.7,34.1s-64.7,61.3-65.1,61.6c-0.3,0.4-1.5,1.7-2.9,1.7
		c-1.5,0-2.6-1.4-2.9-1.7S15.7,79.1,15.7,79.1S0,66.7,0,45C0,23.3,17.6,0,46.2,0c25.4,0,37.5,20.2,37.5,20.2S95.7,0,121.1,0
		C149.7,0,167.3,23.3,167.3,45z"/>
	<g class="pisku-eye">
		<circle fill="#DF222E" cx="139.1" cy="34.5" r="12.4"/>
		<circle fill="#FFFFFF" cx="143.3" cy="33" r="3.4"/>
	</g>
	
</g>
</svg>
